<svg xmlns="http://www.w3.org/2000/svg" xmlns:xlink="http://www.w3.org/1999/xlink" class=".svg-pemao" viewBox="0 0 518.84 324"><defs><style>.cls-1{fill:none}.cls-2{clip-path:url(#clip-path)}.cls-3{clip-path:url(#clip-path-2)}</style><clipPath id="clip-path" transform="translate(-0.05)"><rect width="227.99" height="324" x="290.99" class="cls-1"/></clipPath><clipPath id="clip-path-2" transform="translate(-0.05)"><rect width="268.5" height="237.75" y="42.98" class="cls-1"/></clipPath></defs><title>Icone-pémao</title><g id="Layer_2" data-name="Layer 2"><g id="Layer_1-2" data-name="Layer 1"><g class="cls-2"><path d="M326.51,184.48a20,20,0,0,0,10.13,2.82,20.27,20.27,0,0,0,20.25-20.25V144a19.64,19.64,0,0,0,20.46-.11,20.21,20.21,0,0,0,20,18.13,20,20,0,0,0,10.13-2.82v38.08c0,.1-.05.16-.05.25a40.45,40.45,0,1,1-80.9,0c0-.09,0-.15-.05-.25Zm0-103.48a5.07,5.07,0,0,1,5.06-5.06h70.89A5.06,5.06,0,0,1,407.51,81v60.71a10.13,10.13,0,1,1-20.25,0v-15.2a5.06,5.06,0,0,0-10.12,0,10.13,10.13,0,1,1-20.25,0,5.07,5.07,0,0,0-10.13,0v40.54a10.12,10.12,0,1,1-20.24,0s0,0,0,0V81ZM367,258.15a40.51,40.51,0,0,1-38.41-27.86,50.41,50.41,0,0,0,76.83,0A40.51,40.51,0,0,1,367,258.15ZM296.14,324a5.06,5.06,0,0,0,5.07-5.06V197.44a65.53,65.53,0,0,1,15.18-41.91v62.16c0,.11.06.22.06.33a50.56,50.56,0,0,0,101.12,0c0-.11.07-.22.07-.33V155.53a65.59,65.59,0,0,1,15.18,41.91v121.5a5.06,5.06,0,1,0,10.12,0V197.44A75.66,75.66,0,0,0,417.64,141V81a15.21,15.21,0,0,0-15.19-15.19H331.57A15.21,15.21,0,0,0,316.39,81v60a75.73,75.73,0,0,0-25.31,56.47v121.5A5.05,5.05,0,0,0,296.14,324Z" transform="translate(-0.05)"/><path d="M508.72,142.3a20.21,20.21,0,0,1-40.4,0l13.94-51.14h12.52ZM493.58,5.06V81H483.46v-76a5.07,5.07,0,0,0-10.13,0V85.42l-15,55a4.6,4.6,0,0,0-.05.64,5.1,5.1,0,0,0-.13.7,30.37,30.37,0,0,0,60.74,0,5.1,5.1,0,0,0-.14-.7,4.58,4.58,0,0,0,0-.64l-15-55V5.06a5.07,5.07,0,0,0-10.13,0Z" transform="translate(-0.05)"/></g><g class="cls-3"><path d="M71.93,53a61.92,61.92,0,0,0-61.84,61.84c0,15.4,6.5,33.06,19.33,52.5,10.46,15.89,25.17,33,43.64,50.67a564.23,564.23,0,0,0,61.19,50.46,575.65,575.65,0,0,0,61-50.67c18.41-17.77,33.06-34.79,43.59-50.68,12.82-19.43,19.43-37,19.53-52.28a61.88,61.88,0,0,0-61.83-61.79c-25.29,0-48.42,16-57.65,39.83L134.2,105,129.58,92.9C120.35,69.07,97.21,53,71.93,53Zm62.32,227.71-2.84-1.93a571,571,0,0,1-65.22-53.42C47.18,207.13,32,189.53,21,173c-13.9-21.15-21-40.74-21-58.13A72,72,0,0,1,71.93,43,70.73,70.73,0,0,1,113,56.08a73.28,73.28,0,0,1,21.26,23.29,72.14,72.14,0,0,1,21.26-23.29A70.73,70.73,0,0,1,196.57,43a72,72,0,0,1,71.88,71.88v0c-.17,17.29-7.3,36.72-21.26,57.81-10.95,16.54-26.09,34.14-45.09,52.45a577.79,577.79,0,0,1-65,53.63Z" transform="translate(-0.05)"/></g></g></g></svg>