<svg xmlns="http://www.w3.org/2000/svg" xmlns:xlink="http://www.w3.org/1999/xlink" viewBox="0 0 113.37 90.79"><defs><style>.cls-1,.cls-2{fill:none}.cls-1{clip-rule:evenodd}.cls-3{clip-path:url(#clip-path)}.cls-4{fill:url(#linear-gradient)}.cls-5{clip-path:url(#clip-path-2)}.cls-6{fill:url(#linear-gradient-2)}.cls-7{clip-path:url(#clip-path-3)}.cls-8{fill:url(#linear-gradient-3)}.cls-9{clip-path:url(#clip-path-4)}.cls-10{fill:url(#linear-gradient-4)}.cls-11{clip-path:url(#clip-path-5)}.cls-12{fill:url(#linear-gradient-5)}.cls-13{clip-path:url(#clip-path-6)}.cls-14{fill:url(#linear-gradient-6)}.cls-15{clip-path:url(#clip-path-7)}.cls-16{fill:url(#linear-gradient-7)}.cls-17{clip-path:url(#clip-path-8)}.cls-18{fill:url(#linear-gradient-8)}.cls-19{clip-path:url(#clip-path-9)}.cls-20{fill:url(#linear-gradient-9)}.cls-21{clip-path:url(#clip-path-10)}.cls-22{fill:url(#linear-gradient-10)}.cls-23,.cls-41{fill:#fff}.cls-24{clip-path:url(#clip-path-11)}.cls-25{fill:url(#linear-gradient-11)}.cls-26{clip-path:url(#clip-path-12)}.cls-27{fill:url(#linear-gradient-12)}.cls-28{clip-path:url(#clip-path-13)}.cls-29{fill:url(#linear-gradient-13)}.cls-30{clip-path:url(#clip-path-14)}.cls-31{fill:url(#linear-gradient-14)}.cls-32{clip-path:url(#clip-path-15)}.cls-33{fill:url(#linear-gradient-15)}.cls-34{clip-path:url(#clip-path-16)}.cls-35{fill:url(#linear-gradient-16)}.cls-36{clip-path:url(#clip-path-17)}.cls-37{fill:url(#linear-gradient-17)}.cls-38{clip-path:url(#clip-path-18)}.cls-39{fill:url(#linear-gradient-18)}.cls-40{clip-path:url(#clip-path-19)}.cls-41{fill-rule:evenodd}</style><clipPath id="clip-path"><path d="M108.48,52.48c2.52,4.06,1.65,10.46-1.39,14.07a12.64,12.64,0,0,1-3,2.6,7.48,7.48,0,0,1-2.33,1.16c-2.34.53-3.73.85-6.18-.07a13.67,13.67,0,0,1-8.64-9.41A11.06,11.06,0,0,1,87,55.38c.1-.43.5-1.28.26-1.64-.44.11-.63,1.14-.78,1.56a12.27,12.27,0,0,0-.26,6.47,12.8,12.8,0,0,0,1.39,3.46,14,14,0,0,0,4.26,4.61A13.88,13.88,0,0,0,97,72.2c9.32,1.06,16.35-7.67,14.52-16.79a11.09,11.09,0,0,0-3.19-5.85,13.72,13.72,0,0,0-5.95-3.08l-1.41-.4a7.14,7.14,0,0,1-3.84-2.68c-1.82-3,1.16-6.44,4.54-5.79,2.56.49,3.66,3.77,3.09,6-.11.46-.18.2,0,.54.43-.08.5-.43.63-1.25a5.65,5.65,0,0,0,0-1.69,5.41,5.41,0,0,0-2.26-4,3.48,3.48,0,0,0-1-.46l-.75-.22c-.28,0-.45-.08-.72-.1a5.4,5.4,0,0,0-5.54,4.95c-.23,6.47,10.26,6.24,13.29,11.11" class="cls-1"/></clipPath><linearGradient id="linear-gradient" x1="85.88" x2="111.83" y1="54.76" y2="54.76" gradientUnits="userSpaceOnUse"><stop offset="0" stop-color="#6b3b06"/><stop offset=".14" stop-color="#e1b905"/><stop offset=".27" stop-color="#c5a633"/><stop offset=".32" stop-color="#bf9c37"/><stop offset=".65" stop-color="#ac8a22"/><stop offset=".74" stop-color="#906109"/><stop offset=".8" stop-color="#b49248"/><stop offset=".87" stop-color="#e4b82c"/><stop offset="1" stop-color="#744908"/></linearGradient><clipPath id="clip-path-2"><path d="M16.25,61.72A2.35,2.35,0,0,1,12.9,60.6,9.66,9.66,0,0,0,12,58.87c-.4-.53-2.55-1.58-.08-2.92a23.66,23.66,0,0,0,4.92-3,41.94,41.94,0,0,0,4.24-3.53c.52-.45.87-.76,1.35-1.25s.83-.84,1.27-1.33a43.77,43.77,0,0,0,3.68-4.28c-.43.1-.15-.09-.8.62A94.37,94.37,0,0,1,16,52.86,11.85,11.85,0,0,1,12.69,55c-1.12.48-3,1.15-2.29,2.92.25.62,1,.8,1.35,1.35s1.33,3.63,3.69,3a3.31,3.31,0,0,0,.47-.19c.39-.24.18-.07.34-.36" class="cls-1"/></clipPath><linearGradient id="linear-gradient-2" x1="10.23" x2="27.41" y1="52.68" y2="52.68" gradientUnits="userSpaceOnUse"><stop offset="0" stop-color="#6b3b06"/><stop offset=".23" stop-color="#6e3e06"/><stop offset=".41" stop-color="#774806"/><stop offset=".56" stop-color="#865806"/><stop offset=".7" stop-color="#9b6f06"/><stop offset=".84" stop-color="#b78c05"/><stop offset=".97" stop-color="#d8b005"/><stop offset="1" stop-color="#e1b905"/></linearGradient><clipPath id="clip-path-3"><path d="M26.09,83.07c.18.29.1.11.18.46l.31-.34c.83-1.09,1.35-1.48,2-2.33a34.26,34.26,0,0,1,2.45-2.53l2.53-2.42c1.45-1.21,3.68-3.51,5.12-4.92,1.06-1,5.3-5.52,5.75-6.67a3.37,3.37,0,0,0,.05-2.15c-.15.21-.11,0-.1.42,0,1.29.29,1.4-1.12,3C42.07,67.08,38,71,36.38,72.36a97.52,97.52,0,0,0-8.09,8Z" class="cls-1"/></clipPath><linearGradient id="linear-gradient-3" x1="26.09" x2="44.67" y1="72.85" y2="72.85" xlink:href="#linear-gradient-2"/><clipPath id="clip-path-4"><path d="M55.67,88.57c-2.25-3.78-2.46-7.78-2.59-12a1,1,0,0,0-.19.72c0,.27,0,.53,0,.8a21.21,21.21,0,0,0,1,7.92c.31.76,1,2.28,1.85,2.61M46.9,48.71a2.3,2.3,0,0,0,.73-.69c-.72-.43-1.51-5,.08-6.8.25-.29.42-.24.62-.67-2.06.66-2.26,4.06-1.9,6C46.54,47.18,47,48.19,46.9,48.71Zm9.93,9.9a9.62,9.62,0,0,1,.85,1.18,10.1,10.1,0,0,1,1.11,6.59,14.29,14.29,0,0,1-.94,3.08c-.17.31-.33.6-.56,1a30,30,0,0,1-4.7,5.12,28.55,28.55,0,0,0-4.38,5,5.49,5.49,0,0,0-.66,1.27c.35-.15.94-1.27,1.21-1.62a14.77,14.77,0,0,1,1.07-1.3c4.66-5.07,11.29-8.14,9.76-16.37a10.27,10.27,0,0,0-1.18-3.22c-1.65-2.85-4.93-4.52-7.35-6.53a9.63,9.63,0,0,1-2.27-2.46c-.23.1-.14.07-.41.2l-.22.11-.16.07-.08,0c.43,0,1.52,1.47,1.93,1.89a6.23,6.23,0,0,0,.67.69C52.47,54.8,55.26,56.63,56.83,58.61Z" class="cls-1"/></clipPath><linearGradient id="linear-gradient-4" x1="46.29" x2="59.81" y1="64.56" y2="64.56" xlink:href="#linear-gradient-2"/><clipPath id="clip-path-5"><path d="M30.62,50.55l.34-.1.48,1.79-.43.37a8.9,8.9,0,0,1,.76,2.47L33,54.75l-.37,0c-.39-1.72-.9-3.23-1.21-5.13S30.86,46,30.68,44s-.07-4.25-.31-6c-.33-2.41-1.14-2.54-2-4.3a6.34,6.34,0,0,1-.69-5.13,5.9,5.9,0,0,1,3-3.34c1.43-.68,3-1.22,4.36-1.94a3.19,3.19,0,0,0,1.65-1.52A5.51,5.51,0,0,0,37,18.89c-.47.77.06,2.77-2,3.73-3.37,1.6-5.51,1.44-7.45,4.17s-1.25,5.84.59,8.55c1.23,1.81,1.22,1.94,1.25,4.68a73.52,73.52,0,0,0,.71,8.09c.11.75.38,1.77.44,2.44m1.87,6.18a17.08,17.08,0,0,0,.56,1.71A59.66,59.66,0,0,1,35.51,70.2c0,.08,0,.43.05.49l.16.42c.46-1.41-.94-8.93-1.47-11.16-.24-1-.83-2.53-1-3.41Z" class="cls-1"/></clipPath><linearGradient id="linear-gradient-5" x1="26.45" x2="37.08" y1="45" y2="45" xlink:href="#linear-gradient-2"/><clipPath id="clip-path-6"><path d="M68.66,32.61c-1.22-4-2.62-3.84-.77-7.42a8.29,8.29,0,0,0,1-4,20.32,20.32,0,0,0-.37-4.71l0,2.33c0,3,.1,4-1.39,6.68a4.27,4.27,0,0,0-.23,4.2c.94,2.45,1.76,4.18,1.75,6.89,0,3.1-.9,4.57-2.09,7.34a10.64,10.64,0,0,0-.76,1.23c1.87-.65,3.67-6.44,3.41-8.91a17.6,17.6,0,0,0-.63-3.68" class="cls-1"/></clipPath><linearGradient id="linear-gradient-6" x1="66.54" x2="68.96" y1="30.87" y2="30.87" xlink:href="#linear-gradient-2"/><clipPath id="clip-path-7"><path d="M46,14.42C42.26,12.05,42.72,10.9,45,8.3c.76-.86,6.43-6.15,6.43-6.17-2.58,1.22-7.83,6.23-8.69,8.54-.73,2,3,4.43,4.32,5s5.05,1.55,6-.67a3.87,3.87,0,0,1-3,1,7.47,7.47,0,0,1-1.44-.25A10.49,10.49,0,0,1,46,14.42" class="cls-1"/></clipPath><linearGradient id="linear-gradient-7" x1="42.67" x2="53.08" y1="9.66" y2="9.66" xlink:href="#linear-gradient-2"/><clipPath id="clip-path-8"><path d="M25.37,84.61l-.44,0c-.18.63-1.11,1.68-1.38,2.86-.2.86.18,3.36.67,3,.08-.12.06,0-.06-.21a3.72,3.72,0,0,1-.31-3,18.53,18.53,0,0,1,1.52-2.63" class="cls-1"/></clipPath><linearGradient id="linear-gradient-8" x1="23.49" x2="25.37" y1="87.68" y2="87.68" xlink:href="#linear-gradient-2"/><clipPath id="clip-path-9"><path d="M64.94,6.55a3.39,3.39,0,0,0-.63-1.17c-.37-.52-.56-.86-1-1.08A7.25,7.25,0,0,0,64,5.46a7.32,7.32,0,0,1,.68,1.18c-.54.92-1.45,2-2.1,2.93C61,11.81,59.37,14,57.72,16.22a10,10,0,0,0-1.27,1.93A14.5,14.5,0,0,0,58.19,16c.75-1,6.8-9,6.75-9.46" class="cls-1"/></clipPath><linearGradient id="linear-gradient-9" x1="56.45" x2="64.94" y1="11.23" y2="11.23" xlink:href="#linear-gradient-2"/><clipPath id="clip-path-10"><path d="M65.5,17.14c.23-.43.41-.72.65-1.16.56-1,2-3.69,2.6-4.51A34.68,34.68,0,0,0,71,8.2c2.23-4-.6-5.31-3.93-6.63A23.06,23.06,0,0,0,62.29,0c.17.29,3.51,1.32,4.57,1.8C68.8,2.86,72.28,4,71.24,6.73a11.73,11.73,0,0,1-1.16,2.13c-.07.17-2.08,3-2.79,4.3-1.15,2.09-2.54,4.39-3.5,6.56a45.44,45.44,0,0,1-3,6,10.46,10.46,0,0,1-.83,1.09,5.94,5.94,0,0,1-2.09,1.76l0,.23c2.92-.6,6.15-8.86,7.7-11.64" class="cls-1"/></clipPath><linearGradient id="linear-gradient-10" x1="57.8" x2="71.82" y1="14.39" y2="14.39" xlink:href="#linear-gradient-2"/><clipPath id="clip-path-11"><polygon points="75.82 46.13 75.82 36.2 72.14 36.2 72.14 34.88 80.99 34.88 80.99 36.2 77.3 36.2 77.3 46.13 75.82 46.13" class="cls-2"/></clipPath><linearGradient id="linear-gradient-11" x1="72.14" x2="93.67" y1="40.5" y2="40.5" xlink:href="#linear-gradient"/><clipPath id="clip-path-12"><path d="M81.61,46.12V38h1.23v1.25a3.47,3.47,0,0,1,.87-1.15,1.59,1.59,0,0,1,.89-.28,2.73,2.73,0,0,1,1.41.44l-.49,1.28a2,2,0,0,0-1-.29,1.22,1.22,0,0,0-.8.28,1.45,1.45,0,0,0-.51.75A5.44,5.44,0,0,0,83,41.87v4.25Z" class="cls-2"/></clipPath><linearGradient id="linear-gradient-12" x1="72.14" x2="93.67" y1="41.96" y2="41.96" xlink:href="#linear-gradient"/><clipPath id="clip-path-13"><path d="M87.71,41.27h4.51a2.75,2.75,0,0,0-.52-1.54,2.08,2.08,0,0,0-1.69-.8,2.2,2.2,0,0,0-1.59.64,2.53,2.53,0,0,0-.71,1.7m4.5,2.22,1.42.19a3.52,3.52,0,0,1-1.24,1.93,3.73,3.73,0,0,1-2.31.69,3.67,3.67,0,0,1-2.81-1.1,4.27,4.27,0,0,1-1-3.08,4.48,4.48,0,0,1,1-3.18A3.52,3.52,0,0,1,90,37.8a3.46,3.46,0,0,1,2.65,1.11,4.47,4.47,0,0,1,1,3.13c0,.08,0,.2,0,.36h-6a3.11,3.11,0,0,0,.76,2.06,2.24,2.24,0,0,0,1.69.71,2.1,2.1,0,0,0,1.28-.4A2.69,2.69,0,0,0,92.21,43.49Z" class="cls-2"/></clipPath><linearGradient id="linear-gradient-13" x1="72.14" x2="93.67" y1="42.05" y2="42.05" xlink:href="#linear-gradient"/><clipPath id="clip-path-14"><path d="M89.73,36.73c1.09-.73,3.52-2.35,4-.35a1.35,1.35,0,0,0,1,1h0c-.71.16-1.23-.54-1.57-1.16s-2.65.86-3,1.12a.37.37,0,1,1-.42-.62" class="cls-1"/></clipPath><linearGradient id="linear-gradient-14" x1="89.57" x2="94.76" y1="35.96" y2="35.96" xlink:href="#linear-gradient"/><clipPath id="clip-path-15"><path d="M61.54,58.45V46.82h2.3l2.73,8.23c.25.77.44,1.34.55,1.72.13-.42.34-1,.62-1.86l2.78-8.09h2V58.45H71.1V48.72l-3.37,9.73H66.35L63,48.55v9.9Z" class="cls-2"/></clipPath><linearGradient id="linear-gradient-15" x1="61.54" x2="99.44" y1="52.64" y2="52.64" xlink:href="#linear-gradient"/><clipPath id="clip-path-16"><path d="M80.06,54.23a10.18,10.18,0,0,1-2.32.53,5.51,5.51,0,0,0-1.25.29,1.27,1.27,0,0,0-.56.46,1.22,1.22,0,0,0-.2.67,1.21,1.21,0,0,0,.44,1,1.83,1.83,0,0,0,1.25.38,3,3,0,0,0,1.47-.36,2.2,2.2,0,0,0,.93-1,3.32,3.32,0,0,0,.23-1.42Zm.11,3.16a5.09,5.09,0,0,1-1.52,1,4.29,4.29,0,0,1-1.57.28A3.05,3.05,0,0,1,75,58a2.2,2.2,0,0,1-.74-1.72,2.26,2.26,0,0,1,.28-1.13,2.41,2.41,0,0,1,.73-.82,3.52,3.52,0,0,1,1-.47,11.79,11.79,0,0,1,1.27-.21,13.21,13.21,0,0,0,2.53-.49c0-.2,0-.32,0-.37a1.58,1.58,0,0,0-.4-1.23A2.41,2.41,0,0,0,78,51a2.52,2.52,0,0,0-1.48.35,2.18,2.18,0,0,0-.71,1.26l-1.39-.2A3.52,3.52,0,0,1,75.08,51a2.73,2.73,0,0,1,1.26-.85,5.59,5.59,0,0,1,1.91-.3A5,5,0,0,1,80,50.1a2,2,0,0,1,1.43,1.61A9,9,0,0,1,81.5,53v1.9a20.37,20.37,0,0,0,.09,2.51,3.15,3.15,0,0,0,.34,1H80.45A3.22,3.22,0,0,1,80.17,57.39Z" class="cls-2"/></clipPath><linearGradient id="linear-gradient-16" x1="61.54" x2="99.44" y1="54.24" y2="54.24" xlink:href="#linear-gradient"/><clipPath id="clip-path-17"><path d="M83.52,58.45V50H84.8v1.29a3.42,3.42,0,0,1,.9-1.18,1.59,1.59,0,0,1,.91-.29,2.81,2.81,0,0,1,1.46.46l-.5,1.31a2.15,2.15,0,0,0-1-.29,1.38,1.38,0,0,0-.83.28,1.54,1.54,0,0,0-.52.78,5.52,5.52,0,0,0-.24,1.67v4.4Z" class="cls-2"/></clipPath><linearGradient id="linear-gradient-17" x1="61.54" x2="99.44" y1="54.15" y2="54.15" xlink:href="#linear-gradient"/><clipPath id="clip-path-18"><path d="M88.77,58.45V50h1.42v8.43Zm0-10V46.82h1.42v1.63Z" class="cls-2"/></clipPath><linearGradient id="linear-gradient-18" x1="61.54" x2="99.44" y1="52.64" y2="52.64" xlink:href="#linear-gradient"/><clipPath id="clip-path-19"><path d="M97.57,54.23a10.18,10.18,0,0,1-2.32.53,5.51,5.51,0,0,0-1.25.29,1.27,1.27,0,0,0-.56.46,1.22,1.22,0,0,0-.2.67,1.21,1.21,0,0,0,.44,1,1.83,1.83,0,0,0,1.25.38,3,3,0,0,0,1.47-.36,2.25,2.25,0,0,0,.93-1,3.32,3.32,0,0,0,.23-1.42Zm.11,3.16a5.09,5.09,0,0,1-1.52,1,4.29,4.29,0,0,1-1.57.28A3,3,0,0,1,92.47,58a2.2,2.2,0,0,1-.74-1.72A2.26,2.26,0,0,1,92,55.1a2.41,2.41,0,0,1,.73-.82,3.52,3.52,0,0,1,1-.47A11.79,11.79,0,0,1,95,53.6a13.21,13.21,0,0,0,2.53-.49c0-.2,0-.32,0-.37a1.58,1.58,0,0,0-.4-1.23A2.41,2.41,0,0,0,95.55,51a2.52,2.52,0,0,0-1.48.35,2.18,2.18,0,0,0-.71,1.26L92,52.44A3.52,3.52,0,0,1,92.59,51a2.73,2.73,0,0,1,1.26-.85,5.59,5.59,0,0,1,1.91-.3,5,5,0,0,1,1.75.26,2,2,0,0,1,1.43,1.61A9,9,0,0,1,99,53v1.9a20.37,20.37,0,0,0,.09,2.51,3.15,3.15,0,0,0,.34,1H98A3.22,3.22,0,0,1,97.68,57.39Z" class="cls-2"/></clipPath></defs><title>Favicon-3marias</title><g id="Layer_2" data-name="Layer 2"><g id="Layer_1-2" data-name="Layer 1"><g class="cls-3"><rect width="27.71" height="37" x="85.67" y="36.26" class="cls-4"/></g><g class="cls-5"><rect width="17.93" height="20.41" x="9.48" y="42.48" class="cls-6"/></g><g class="cls-7"><rect width="18.65" height="21.35" x="26.09" y="62.17" class="cls-8"/></g><g class="cls-9"><rect width="15.05" height="48.02" x="46.07" y="40.55" class="cls-10"/></g><g class="cls-11"><rect width="11.54" height="52.23" x="25.65" y="18.89" class="cls-12"/></g><g class="cls-13"><rect width="3.67" height="28.68" x="65.88" y="16.53" class="cls-14"/></g><g class="cls-15"><rect width="11.05" height="15.06" x="42.03" y="2.13" class="cls-16"/></g><g class="cls-17"><rect width="2.02" height="6.22" x="23.35" y="84.57" class="cls-18"/></g><g class="cls-19"><rect width="8.54" height="13.85" x="56.45" y="4.3" class="cls-20"/></g><g class="cls-21"><rect width="15.45" height="28.78" x="57.8" class="cls-22"/></g><polygon points="72.44 32.57 72.44 27.71 75.93 27.71 75.93 28.28 73.08 28.28 73.08 29.77 75.75 29.77 75.75 30.34 73.08 30.34 73.08 32 76.05 32 76.05 32.57 72.44 32.57" class="cls-23"/><path d="M76.62,31.52l.59-.1a.83.83,0,0,0,.27.55,1,1,0,0,0,.64.19.91.91,0,0,0,.6-.17.47.47,0,0,0,.2-.39.35.35,0,0,0-.18-.32,2.17,2.17,0,0,0-.6-.2,5.46,5.46,0,0,1-.91-.29.9.9,0,0,1-.38-.34.91.91,0,0,1,0-.9.85.85,0,0,1,.29-.33A1.22,1.22,0,0,1,77.5,29,2.09,2.09,0,0,1,78,29a2,2,0,0,1,.72.12,1,1,0,0,1,.46.32,1.19,1.19,0,0,1,.2.55l-.58.08a.67.67,0,0,0-.22-.43.87.87,0,0,0-.54-.15,1,1,0,0,0-.58.14.37.37,0,0,0-.17.31.31.31,0,0,0,.07.21.47.47,0,0,0,.22.16c.06,0,.24.08.53.15s.71.21.88.28a1,1,0,0,1,.39.31.93.93,0,0,1,.14.51,1,1,0,0,1-.17.56,1.19,1.19,0,0,1-.5.41,1.78,1.78,0,0,1-.74.14,1.63,1.63,0,0,1-1-.28,1.34,1.34,0,0,1-.46-.84" class="cls-23"/><path d="M81.52,32l.08.52a1.85,1.85,0,0,1-.44.06,1,1,0,0,1-.5-.11.47.47,0,0,1-.25-.27,2,2,0,0,1-.08-.7v-2h-.44v-.46h.44v-.88l.6-.35v1.23h.59v.46h-.59v2.06a1.11,1.11,0,0,0,0,.33.23.23,0,0,0,.1.12.37.37,0,0,0,.2,0l.26,0" class="cls-23"/><path d="M83.05,28.61l.43-.93h.79l-.72.93Zm-.5,1.86h2a1.15,1.15,0,0,0-.22-.66.9.9,0,0,0-.73-.35.92.92,0,0,0-.69.28A1.09,1.09,0,0,0,82.55,30.47Zm2,1,.61.08a1.48,1.48,0,0,1-.53.84,1.62,1.62,0,0,1-1,.29,1.58,1.58,0,0,1-1.22-.47,1.86,1.86,0,0,1-.45-1.33,1.93,1.93,0,0,1,.46-1.38,1.63,1.63,0,0,1,2.32,0,1.94,1.94,0,0,1,.44,1.35V31H82.52a1.33,1.33,0,0,0,.33.89,1,1,0,0,0,.73.31.87.87,0,0,0,.55-.18A1.09,1.09,0,0,0,84.5,31.43Z" class="cls-23"/><path d="M87.15,32l.08.52a1.85,1.85,0,0,1-.44.06,1,1,0,0,1-.51-.11.49.49,0,0,1-.24-.27,2,2,0,0,1-.08-.7v-2h-.44v-.46H86v-.88l.6-.35v1.23h.59v.46h-.59v2.06a1.11,1.11,0,0,0,0,.33.23.23,0,0,0,.1.12.37.37,0,0,0,.2,0l.26,0" class="cls-23"/><path d="M87.74,32.57V29.05h.59v3.52Zm0-4.18v-.68h.59v.68Z" class="cls-23"/><path d="M91.53,31.28l.58.08a1.53,1.53,0,0,1-.49.94,1.42,1.42,0,0,1-1,.34,1.47,1.47,0,0,1-1.15-.47,1.91,1.91,0,0,1-.44-1.35,2.41,2.41,0,0,1,.19-1,1.25,1.25,0,0,1,.57-.63,1.62,1.62,0,0,1,.84-.22,1.47,1.47,0,0,1,.93.29,1.34,1.34,0,0,1,.46.82l-.57.09a1,1,0,0,0-.29-.53.76.76,0,0,0-.51-.18.94.94,0,0,0-.73.32,1.53,1.53,0,0,0-.28,1,1.57,1.57,0,0,0,.27,1,.87.87,0,0,0,.7.33.86.86,0,0,0,.59-.22,1.13,1.13,0,0,0,.3-.66" class="cls-23"/><path d="M94.85,30.8a4.06,4.06,0,0,1-1,.23,1.81,1.81,0,0,0-.52.12.48.48,0,0,0-.23.19.47.47,0,0,0-.09.28.52.52,0,0,0,.18.4.82.82,0,0,0,.53.16,1.23,1.23,0,0,0,.61-.15.91.91,0,0,0,.39-.41,1.38,1.38,0,0,0,.1-.6Zm.05,1.33a2.17,2.17,0,0,1-.64.4,1.74,1.74,0,0,1-.65.11,1.27,1.27,0,0,1-.89-.28.92.92,0,0,1-.31-.72.94.94,0,0,1,.12-.47,1,1,0,0,1,.3-.34,1.3,1.3,0,0,1,.43-.2,4.67,4.67,0,0,1,.53-.09,5.72,5.72,0,0,0,1.06-.2v-.16a.63.63,0,0,0-.17-.51.94.94,0,0,0-.67-.2,1,1,0,0,0-.62.15.87.87,0,0,0-.3.52l-.58-.08a1.48,1.48,0,0,1,.26-.61,1.15,1.15,0,0,1,.53-.35,2.15,2.15,0,0,1,.79-.13,2.18,2.18,0,0,1,.74.11,1.07,1.07,0,0,1,.41.26.9.9,0,0,1,.18.41,3.37,3.37,0,0,1,0,.55v.79a9.32,9.32,0,0,0,0,1.05,1.16,1.16,0,0,0,.15.43H95A1.42,1.42,0,0,1,94.9,32.13Z" class="cls-23"/><g class="cls-24"><rect width="8.85" height="11.24" x="72.14" y="34.88" class="cls-25"/></g><g class="cls-26"><rect width="4.4" height="8.32" x="81.61" y="37.8" class="cls-27"/></g><g class="cls-28"><rect width="7.44" height="8.49" x="86.23" y="37.8" class="cls-29"/></g><g class="cls-30"><rect width="5.24" height="3.17" x="89.52" y="34.38" class="cls-31"/></g><g class="cls-32"><rect width="11.03" height="11.63" x="61.54" y="46.82" class="cls-33"/></g><g class="cls-34"><rect width="7.72" height="8.78" x="74.22" y="49.84" class="cls-35"/></g><g class="cls-36"><rect width="4.55" height="8.61" x="83.52" y="49.84" class="cls-37"/></g><g class="cls-38"><rect width="1.42" height="11.63" x="88.77" y="46.82" class="cls-39"/></g><g class="cls-40"><rect width="7.72" height="8.78" x="91.73" y="49.84" class="cls-35"/></g><path d="M24.93,84.57l.44,0a3.14,3.14,0,0,1,.9-1.08c-.08-.35,0-.17-.18-.46a4.23,4.23,0,0,1-1.54-.71c-.55-.3-1-.52-1.5-.86a39.82,39.82,0,0,1-5.32-4.16c-2.8-2.55-4.64-3.88-5.91-8.31-.85-3-.51-5.71-.25-8.81l-1.25,1.21C7.71,65,8,65.94,6.94,70.25S3.11,79.94,1.35,84.08c-.29.67-1.44,2.84-1.34,3.4a1.68,1.68,0,0,0,1.57.12c.55-.21.55-.83.75-1.4.92-2.69,2.67-6,3.9-8.75,1.95-4.37,3.13-12.68,3.6-13.33.16,3,.1,4.47,1.42,7.42a18.63,18.63,0,0,0,5.8,7.52,59.4,59.4,0,0,0,5.15,3.75c.88.58,1.93,1.16,2.73,1.76" class="cls-41"/><path d="M46.9,48.71c-.54,1.14-5,3.1-6.35,3.63A61,61,0,0,1,33,54.75l-1.18.33c-.68.1-1.7.42-2.44.58s-1.61.38-2.48.56a43.7,43.7,0,0,1-5.18,1l0-.09A33,33,0,0,0,26.44,55c.85-.42,1.53-.78,2.29-1.2A14.77,14.77,0,0,1,31,52.61l.43-.37L31,50.45l-.34.1a25,25,0,0,1-3.36,2.34c-1.21.77-2.29,1.39-3.62,2.13a60.09,60.09,0,0,1-5.79,2.78,10,10,0,0,0-2.11.92,61.6,61.6,0,0,0,16.75-2l.79-.19c2.61-.88,5.07-1.45,7.66-2.55a60,60,0,0,0,7-3.26l.08,0,.16-.07.22-.11c.27-.13.18-.1.41-.2.39-.54.15-.69-.21-1.27l-.32-.57c-.23-.38-.15-.38-.63-.44a2.3,2.3,0,0,1-.73.69" class="cls-41"/></g></g></svg>